# This file uses centimeters as units for non-parametric coordinates.

g default
v 1.063637 0.138230 -0.930129
v 1.576396 0.138230 -0.930129
v 1.277739 1.519007 -1.008107
v 1.273569 1.528465 -1.008107
v 1.273569 1.528465 -1.348627
v 1.277739 1.519007 -1.348627
v 1.063637 0.138230 -1.354101
v 1.576396 0.138230 -1.354101
v 1.576396 1.046923 -0.930129
v 1.063637 1.046923 -0.930129
v 1.063637 1.046923 -1.354101
v 1.570665 1.073524 -1.330975
v 1.576396 0.671790 -0.957747
v 1.063637 0.671790 -0.976335
v 1.063637 0.671790 -1.354101
v 1.576396 0.671790 -1.354101
v 1.306565 1.046923 -1.001114
v 1.306565 0.671790 -0.947944
v 1.306565 0.138230 -0.947944
v 1.306565 0.138230 -1.354101
v 1.276333 1.522195 -1.348627
v 1.275763 1.523488 -1.008107
v 1.353480 1.373722 -1.354718
v 1.342454 1.389543 -1.003343
v 1.321014 1.388915 -1.061153
v 1.301710 1.388350 -1.003343
v 1.301710 1.388350 -1.348627
v 1.262281 0.120396 -1.738005
v 1.576396 0.138230 -1.778073
v 1.576396 0.671790 -1.772352
v 1.262281 0.653956 -1.708040
v 1.275763 1.523488 -1.689147
v 1.273569 1.528465 -1.689147
v 1.063637 0.138230 -1.778073
v 1.063637 0.671790 -1.731867
v 1.321014 1.388915 -1.636100
v 1.306565 1.046923 -1.707088
v 1.576396 1.046923 -1.778073
v 1.342454 1.389543 -1.693910
v 1.063637 1.046923 -1.778073
v 1.301710 1.388350 -1.693910
v 1.277739 1.519007 -1.689147
vt 0.375000 0.000000
vt 0.625000 0.000000
vt 0.375000 0.250000
vt 0.625000 0.250000
vt 0.375000 1.000000
vt 0.625000 1.000000
vt 0.625000 0.355993
vt 0.730993 0.250000
vt 0.269007 0.250000
vt 0.375000 0.355993
vt 0.269007 0.000000
vt 0.375000 0.894007
vt 0.625000 0.894007
vt 0.730993 0.000000
vt 0.625000 0.227173
vt 0.375000 0.227173
vt 0.269007 0.227173
vt 0.730993 0.227173
vt 0.625000 0.133390
vt 0.375000 0.133390
vt 0.269007 0.133390
vt 0.730993 0.133390
vt 0.493442 0.227173
vt 0.493442 0.133390
vt 0.493442 0.000000
vt 0.493442 1.000000
vt 0.493442 0.894007
vt 0.493442 0.355993
vt 0.493442 0.250000
vt 0.730993 0.244906
vt 0.625000 0.244906
vt 0.493442 0.244906
vt 0.375000 0.244906
vt 0.269007 0.244906
vt 0.493442 0.000000
vt 0.625000 0.000000
vt 0.625000 0.133390
vt 0.493442 0.133390
vt 0.493442 0.250000
vt 0.625000 0.250000
vt 0.625000 0.355993
vt 0.493442 0.355993
vt 0.493442 0.894007
vt 0.625000 0.894007
vt 0.625000 1.000000
vt 0.493442 1.000000
vt 0.730993 0.000000
vt 0.730993 0.133390
vt 0.269007 0.000000
vt 0.375000 0.000000
vt 0.375000 0.133390
vt 0.269007 0.133390
vt 0.493442 0.244906
vt 0.493442 0.227173
vt 0.625000 0.227173
vt 0.625000 0.244906
vt 0.269007 0.227173
vt 0.375000 0.227173
vt 0.375000 0.244906
vt 0.269007 0.244906
vt 0.730993 0.227173
vt 0.730993 0.244906
vt 0.375000 0.894007
vt 0.375000 1.000000
vt 0.375000 0.250000
vt 0.375000 0.355993
vt 0.730993 0.250000
vt 0.269007 0.250000
vn -0.018112 0.034108 0.999254
vn -0.014840 0.025869 0.999555
vn -0.055405 0.029198 0.998037
vn -0.018191 0.029258 0.999406
vn -0.914993 -0.403471 0.000000
vn -0.914984 -0.403491 0.000000
vn -0.914984 -0.403491 0.000000
vn -0.914993 -0.403471 0.000000
vn 0.000000 -1.000000 0.000000
vn 0.000000 -1.000000 0.000000
vn 0.000000 -1.000000 0.000000
vn 0.000000 -1.000000 0.000000
vn 1.000000 -0.000000 0.000000
vn 1.000000 -0.000000 0.000000
vn 0.999991 0.003177 -0.002811
vn 0.999990 0.003273 -0.002896
vn -1.000000 0.000000 0.000000
vn -1.000000 0.000000 0.000000
vn -1.000000 0.000000 0.000000
vn -1.000000 0.000000 0.000000
vn -0.035925 0.017949 0.999193
vn -0.004375 0.025976 0.999653
vn -0.166095 0.036665 0.985428
vn -0.429412 0.029392 0.902631
vn -0.951311 0.308232 0.000000
vn -0.951145 0.308744 0.000000
vn -0.898186 0.439616 0.000000
vn -0.903541 0.428503 0.000000
vn 0.960060 0.279780 0.002754
vn 0.951073 0.308943 0.003826
vn 0.838656 0.544543 0.011383
vn 0.839984 0.542495 0.011213
vn 0.023357 0.029247 0.999299
vn 0.152745 0.009866 0.988216
vn -0.021742 0.043249 0.998828
vn 0.000000 -1.000000 0.000000
vn 0.000000 -1.000000 0.000000
vn -0.915006 -0.403441 0.000000
vn -0.915006 -0.403441 0.000000
vn 0.480823 0.023709 0.876497
vn 0.892027 0.451965 0.003881
vn 0.892027 0.451965 0.003881
vn -0.815847 -0.427318 0.389606
vn -0.851585 -0.412497 0.323496
vn 0.935736 0.190138 0.297062
vn -0.983583 -0.180457 0.000000
vn -0.983583 -0.180457 0.000000
vn -0.038837 0.047962 -0.998094
vn -0.026394 0.015888 -0.999525
vn -0.190583 0.022262 -0.981419
vn -0.165632 0.032961 -0.985637
vn -0.914993 -0.403471 -0.000000
vn -0.914993 -0.403470 -0.000000
vn -0.914984 -0.403491 -0.000000
vn -0.914984 -0.403491 -0.000000
vn 0.005035 -0.999750 0.021794
vn -0.005394 -0.999735 0.022365
vn 0.031912 -0.999284 0.020310
vn 0.031912 -0.999284 0.020310
vn 1.000000 -0.000000 0.000000
vn 0.999991 0.003099 0.002742
vn 0.999991 0.003158 0.002794
vn 1.000000 -0.000000 0.000000
vn -1.000000 0.000000 0.000000
vn -1.000000 0.000000 0.000000
vn -1.000000 0.000000 0.000000
vn -1.000000 0.000000 0.000000
vn -0.036671 0.048755 -0.998137
vn -0.428740 0.057877 -0.901572
vn -0.255383 0.018434 -0.966664
vn -0.039594 0.006607 -0.999194
vn -0.950725 0.310037 0.000000
vn -0.904247 0.427011 0.000000
vn -0.897572 0.440868 0.000000
vn -0.951773 0.306803 0.000000
vn 0.963443 0.267905 -0.002372
vn 0.839163 0.543771 -0.010918
vn 0.837684 0.546043 -0.011095
vn 0.952363 0.304944 -0.003658
vn 0.184513 0.005765 -0.982813
vn 0.252070 -0.048960 -0.966470
vn 0.164535 0.070228 -0.983868
vn -0.042551 -0.998797 0.024381
vn -0.042551 -0.998797 0.024381
vn -0.915006 -0.403441 -0.000000
vn -0.915006 -0.403441 -0.000000
vn 0.479984 0.051078 -0.875789
vn 0.891961 0.452095 -0.003946
vn 0.891961 0.452095 -0.003946
vn -0.815847 -0.427318 -0.389606
vn -0.851585 -0.412497 -0.323496
vn 0.935736 0.190138 -0.297062
vn -0.983583 -0.180457 0.000000
vn -0.983583 -0.180457 0.000000
g pCube3
f 19/25/1 2/2/2 13/19/3 18/24/4
f 22/29/5 4/4/6 5/7/7 21/28/8
f 20/27/9 8/13/10 2/6/11 19/26/12
f 2/2/13 8/14/14 16/22/15 13/19/16
f 7/11/17 1/1/18 14/20/19 15/21/20
f 25/32/21 17/23/22 9/15/23 24/31/24
f 11/17/25 10/16/26 26/33/27 27/34/28
f 9/15/29 12/18/30 23/30/31 24/31/32
f 18/24/4 13/19/3 9/15/23 17/23/22
f 15/21/20 14/20/19 10/16/26 11/17/25
f 13/19/16 16/22/15 12/18/30 9/15/29
f 14/20/33 18/24/4 17/23/22 10/16/34
f 1/1/35 19/25/1 18/24/4 14/20/33
f 7/12/36 20/27/9 19/26/12 1/5/37
f 3/3/38 22/29/5 21/28/8 6/10/39
f 10/16/34 17/23/22 25/32/21 26/33/40
f 24/31/32 23/30/31 5/8/41 4/4/42
f 22/29/43 25/32/21 24/31/24 4/4/44
f 26/33/40 25/32/21 22/29/43 3/3/45
f 27/34/28 26/33/27 3/3/46 6/9/47
f 28/35/48 31/38/49 30/37/50 29/36/51
f 32/39/52 21/42/53 5/41/54 33/40/55
f 20/43/56 28/46/57 29/45/58 8/44/59
f 29/36/60 30/37/61 16/48/62 8/47/63
f 7/49/64 15/52/65 35/51/66 34/50/67
f 36/53/68 39/56/69 38/55/70 37/54/71
f 11/57/72 27/60/73 41/59/74 40/58/75
f 38/55/76 39/56/77 23/62/78 12/61/79
f 31/38/49 37/54/71 38/55/70 30/37/50
f 15/52/65 11/57/72 40/58/75 35/51/66
f 30/37/61 38/55/76 12/61/79 16/48/62
f 35/51/80 40/58/81 37/54/71 31/38/49
f 34/50/82 35/51/80 31/38/49 28/35/48
f 7/63/83 34/64/84 28/46/57 20/43/56
f 42/65/85 6/66/86 21/42/53 32/39/52
f 40/58/81 41/59/87 36/53/68 37/54/71
f 39/56/77 33/40/88 5/67/89 23/62/78
f 32/39/90 33/40/91 39/56/69 36/53/68
f 41/59/87 42/65/92 32/39/90 36/53/68
f 27/60/73 6/68/93 42/65/94 41/59/74
