# This file uses centimeters as units for non-parametric coordinates.

mtllib birdhouse.mtl
g default
v 0.042628 0.615675 0.431938
v 0.029965 0.624165 0.431938
v 0.015378 0.621504 0.431938
v 0.005694 0.608937 0.431938
v 0.005442 0.592345 0.431938
v 0.014742 0.579490 0.431938
v 0.029241 0.576389 0.431938
v 0.042155 0.584491 0.431938
v 0.047442 0.600007 0.431938
v 0.042628 0.615675 0.961592
v 0.029965 0.624165 0.961592
v 0.015378 0.621504 0.961592
v 0.005694 0.608937 0.961592
v 0.005442 0.592345 0.961592
v 0.014742 0.579490 0.961592
v 0.029241 0.576389 0.961592
v 0.042155 0.584491 0.961592
v 0.047442 0.600007 0.961592
vt 0.619694 0.055814
vt 0.527133 0.002374
vt 0.421875 0.020934
vt 0.353173 0.102809
vt 0.353173 0.209691
vt 0.421875 0.291566
vt 0.527133 0.310126
vt 0.619694 0.256686
vt 0.656250 0.156250
vt 0.375000 0.312500
vt 0.402778 0.312500
vt 0.430556 0.312500
vt 0.458333 0.312500
vt 0.486111 0.312500
vt 0.513889 0.312500
vt 0.541667 0.312500
vt 0.569445 0.312500
vt 0.597222 0.312500
vt 0.625000 0.312500
vt 0.375000 0.688440
vt 0.402778 0.688440
vt 0.430556 0.688440
vt 0.458333 0.688440
vt 0.486111 0.688440
vt 0.513889 0.688440
vt 0.541667 0.688440
vt 0.569445 0.688440
vt 0.597222 0.688440
vt 0.625000 0.688440
vt 0.619694 0.743314
vt 0.527133 0.689874
vt 0.421875 0.708434
vt 0.353173 0.790309
vt 0.353173 0.897191
vt 0.421875 0.979066
vt 0.527133 0.997626
vt 0.619694 0.944186
vt 0.656250 0.843750
vn 0.556883 0.830591 -0.000000
vn 0.556883 0.830591 -0.000000
vn 0.556883 0.830591 -0.000000
vn 0.556883 0.830591 -0.000000
vn -0.179469 0.983764 0.000000
vn -0.179469 0.983764 0.000000
vn -0.179469 0.983764 0.000000
vn -0.179469 0.983764 0.000000
vn -0.792084 0.610413 0.000000
vn -0.792084 0.610413 0.000000
vn -0.792084 0.610413 0.000000
vn -0.792084 0.610413 0.000000
vn -0.999885 0.015147 0.000000
vn -0.999885 0.015147 0.000000
vn -0.999885 0.015147 0.000000
vn -0.999885 0.015147 0.000000
vn -0.810210 -0.586140 -0.000000
vn -0.810210 -0.586140 -0.000000
vn -0.810210 -0.586140 -0.000000
vn -0.810210 -0.586140 -0.000000
vn -0.209184 -0.977876 -0.000000
vn -0.209184 -0.977876 -0.000000
vn -0.209184 -0.977876 -0.000000
vn -0.209184 -0.977876 -0.000000
vn 0.531470 -0.847077 0.000000
vn 0.531470 -0.847077 0.000000
vn 0.531470 -0.847077 0.000000
vn 0.531470 -0.847077 0.000000
vn 0.946558 -0.322534 -0.000000
vn 0.946558 -0.322534 -0.000000
vn 0.946558 -0.322534 -0.000000
vn 0.946558 -0.322534 -0.000000
vn 0.955893 0.293715 -0.000000
vn 0.955893 0.293715 -0.000000
vn 0.955893 0.293715 -0.000000
vn 0.955893 0.293715 -0.000000
vn 0.000000 0.000001 -1.000000
vn 0.000000 0.000001 -1.000000
vn 0.000000 0.000001 -1.000000
vn 0.000000 0.000001 -1.000000
vn 0.000000 0.000001 -1.000000
vn 0.000000 0.000001 -1.000000
vn 0.000000 0.000001 -1.000000
vn 0.000000 0.000001 -1.000000
vn 0.000000 0.000001 -1.000000
vn -0.000000 0.000001 1.000000
vn -0.000000 0.000001 1.000000
vn -0.000000 0.000001 1.000000
vn -0.000000 0.000001 1.000000
vn -0.000000 0.000001 1.000000
vn -0.000000 0.000001 1.000000
vn -0.000000 0.000001 1.000000
vn -0.000000 0.000001 1.000000
vn -0.000000 0.000001 1.000000
s off
g pCylinder1 group
usemtl initialShadingGroup
f 1/10/1 2/11/2 11/21/3 10/20/4
f 2/11/5 3/12/6 12/22/7 11/21/8
f 3/12/9 4/13/10 13/23/11 12/22/12
f 4/13/13 5/14/14 14/24/15 13/23/16
f 5/14/17 6/15/18 15/25/19 14/24/20
f 6/15/21 7/16/22 16/26/23 15/25/24
f 7/16/25 8/17/26 17/27/27 16/26/28
f 8/17/29 9/18/30 18/28/31 17/27/32
f 9/18/33 1/19/34 10/29/35 18/28/36
f 1/1/37 9/9/38 8/8/39 7/7/40 6/6/41 5/5/42 4/4/43 3/3/44 2/2/45
f 10/37/46 11/36/47 12/35/48 13/34/49 14/33/50 15/32/51 16/31/52 17/30/53 18/38/54
g default
v -0.312789 0.003219 0.431412
v 0.309847 0.003219 0.431412
v -0.489336 1.053742 0.431412
v 0.493717 1.018188 0.431412
v -0.489336 1.053742 -0.498116
v 0.493717 1.018188 -0.498116
v -0.312789 0.003219 -0.498116
v 0.309847 0.003219 -0.498116
v -0.001471 0.003219 0.431412
v -0.001471 0.003219 -0.498116
v -0.006127 1.518519 -0.498116
v -0.006127 1.518519 0.431412
v -0.002661 1.063046 0.431412
v -0.001471 0.693762 0.431412
v 0.441017 0.698409 0.431412
v -0.442384 0.690060 0.431412
v -0.157499 0.997238 0.431412
v -0.157063 0.769744 0.415780
v 0.154498 0.990915 0.431412
v 0.152858 0.774823 0.414020
v -0.005776 1.553069 -0.492051
v -0.007346 1.553765 0.421115
v 0.548683 1.019340 0.429520
v 0.548683 1.019340 -0.500008
v -0.546581 1.047700 0.412696
v -0.546581 1.047700 -0.484094
vt 0.375000 0.000000
vt 0.625000 0.000000
vt 0.375000 0.250000
vt 0.625000 0.250000
vt 0.375000 0.500000
vt 0.625000 0.500000
vt 0.375000 0.750000
vt 0.625000 0.750000
vt 0.375000 1.000000
vt 0.625000 1.000000
vt 0.875000 0.000000
vt 0.875000 0.250000
vt 0.125000 0.000000
vt 0.125000 0.250000
vt 0.500000 0.000000
vt 0.500000 1.000000
vt 0.500000 0.750000
vt 0.500000 0.500000
vt 0.500000 0.250000
vt 0.500000 0.164252
vt 0.500000 0.112716
vt 0.625000 0.173798
vt 0.375000 0.171710
vt 0.445522 0.201623
vt 0.440431 0.140830
vt 0.561901 0.206716
vt 0.570044 0.146943
vt 0.500000 0.500000
vt 0.500000 0.250000
vt 0.625000 0.250000
vt 0.625000 0.500000
vt 0.375000 0.250000
vt 0.500000 0.250000
vt 0.500000 0.500000
vt 0.375000 0.500000
vn 0.000000 0.000000 1.000000
vn 0.000000 0.000000 1.000000
vn -0.008869 -0.008688 0.999923
vn -0.015153 -0.014843 0.999775
vn 0.693236 0.720711 0.000318
vn 0.693236 0.720711 0.000318
vn 0.693236 0.720711 0.000318
vn 0.693236 0.720711 0.000318
vn 0.000000 0.000000 -1.000000
vn 0.000000 0.000000 -1.000000
vn 0.000000 0.000000 -1.000000
vn 0.000000 0.000000 -1.000000
vn 0.000000 -1.000000 0.000000
vn 0.000000 -1.000000 0.000000
vn 0.000000 -1.000000 0.000000
vn 0.000000 -1.000000 0.000000
vn 0.983980 -0.178257 -0.002768
vn 0.983980 -0.178257 -0.002768
vn 0.983980 -0.178257 -0.002768
vn 0.983980 -0.178257 -0.002768
vn 0.983980 -0.178257 -0.002768
vn -0.986143 -0.165728 -0.007515
vn -0.986143 -0.165728 -0.007515
vn -0.986143 -0.165728 -0.007515
vn -0.986143 -0.165728 -0.007515
vn -0.986143 -0.165728 -0.007515
vn 0.000000 -1.000000 0.000000
vn 0.000000 -1.000000 0.000000
vn 0.000000 0.000000 -1.000000
vn 0.000000 0.000000 -1.000000
vn -0.683545 0.729908 -0.000873
vn -0.683545 0.729908 -0.000873
vn -0.683545 0.729908 -0.000873
vn -0.683544 0.729908 -0.000873
vn 0.013043 -0.012096 0.999842
vn 0.008642 -0.008015 0.999931
vn -0.000105 0.012477 0.999922
vn -0.000125 0.013147 0.999914
vn -0.000125 0.013152 0.999913
vn 0.005222 0.005035 0.999974
vn 0.005745 0.004304 0.999974
vn -0.006552 0.004544 0.999968
vn -0.005770 0.005676 0.999967
vn -0.000145 0.013811 0.999905
vn 0.128478 0.139076 0.981912
vn 0.128478 0.139076 0.981912
vn 0.128478 0.139076 0.981912
vn 0.128478 0.139076 0.981912
vn 0.020955 -0.999780 0.000000
vn 0.020955 -0.999780 0.000000
vn 0.020955 -0.999780 0.000000
vn 0.020955 -0.999780 0.000000
vn 0.042421 0.050931 -0.997801
vn 0.042421 0.050931 -0.997801
vn 0.042421 0.050931 -0.997801
vn 0.042421 0.050931 -0.997801
vn -0.296843 0.304772 0.904985
vn -0.296842 0.304772 0.904985
vn -0.296842 0.304772 0.904985
vn -0.296843 0.304772 0.904985
vn -0.221602 0.226126 -0.948557
vn -0.221602 0.226126 -0.948557
vn -0.221602 0.226126 -0.948557
vn -0.221602 0.226126 -0.948557
vn 0.104957 -0.994477 0.000000
vn 0.104957 -0.994477 0.000000
vn 0.104957 -0.994477 0.000000
vn 0.104957 -0.994477 0.000000
s 1
g group pCube1
usemtl initialShadingGroup
f 30/57/55 31/58/56 37/64/57 22/42/58
s off
f 39/66/59 40/67/60 41/68/61 42/69/62
s 2
f 28/55/63 29/56/64 24/44/65 26/46/66
s 3
f 27/54/67 28/55/68 26/46/69 20/48/70
s off
f 20/40/71 26/49/72 24/50/73 22/42/74 33/60/75
f 25/51/76 19/39/77 34/61/78 21/41/79 23/52/80
s 3
f 25/45/81 28/55/68 27/54/67 19/47/82
s 2
f 23/43/83 29/56/64 28/55/63 25/45/84
s off
f 43/70/85 40/71/86 39/72/87 44/73/88
s 1
f 21/41/89 35/62/90 31/58/56 30/57/55
f 19/39/91 27/53/92 32/59/93 36/63/94 34/61/95
f 33/60/96 38/65/97 32/59/93 27/53/92 20/40/98
f 22/42/58 37/64/57 38/65/97 33/60/96
f 34/61/95 36/63/94 35/62/90 21/41/89
s off
f 30/57/99 22/42/100 41/68/101 40/67/102
f 22/42/103 24/44/104 42/69/105 41/68/106
f 24/44/107 29/56/108 39/66/109 42/69/110
f 21/41/111 30/57/112 40/71/113 43/70/114
f 29/56/115 23/43/116 44/73/117 39/72/118
f 23/43/119 21/41/120 43/70/121 44/73/122
